<mxfile host="Electron" modified="2024-04-07T14:18:48.419Z" agent="Mozilla/5.0 (Windows NT 10.0; Win64; x64) AppleWebKit/537.36 (KHTML, like Gecko) draw.io/24.1.0 Chrome/120.0.6099.109 Electron/28.1.0 Safari/537.36" etag="xPrKvvSxup2H22QmzB3g" version="24.1.0" type="device">
  <diagram name="Page-1" id="J7dejoUFdDQ9mNIy0u74">
    <mxGraphModel dx="1313" dy="1176" grid="1" gridSize="10" guides="1" tooltips="1" connect="1" arrows="1" fold="1" page="0" pageScale="1" pageWidth="850" pageHeight="1100" math="0" shadow="0">
      <root>
        <mxCell id="0" />
        <mxCell id="1" parent="0" />
        <mxCell id="ArlrjNkzWZ5QPUmhL8L5-1" value="cart" style="swimlane;whiteSpace=wrap;html=1;fillColor=default;" parent="1" vertex="1">
          <mxGeometry x="160" y="160" width="200" height="130" as="geometry">
            <mxRectangle x="160" y="160" width="140" height="30" as="alternateBounds" />
          </mxGeometry>
        </mxCell>
        <mxCell id="ArlrjNkzWZ5QPUmhL8L5-2" value="string" style="rounded=0;whiteSpace=wrap;html=1;" parent="ArlrjNkzWZ5QPUmhL8L5-1" vertex="1">
          <mxGeometry x="100" y="23" width="100" height="27" as="geometry" />
        </mxCell>
        <mxCell id="ArlrjNkzWZ5QPUmhL8L5-8" value="string" style="rounded=0;whiteSpace=wrap;html=1;" parent="ArlrjNkzWZ5QPUmhL8L5-1" vertex="1">
          <mxGeometry x="100" y="50" width="100" height="27" as="geometry" />
        </mxCell>
        <mxCell id="ArlrjNkzWZ5QPUmhL8L5-9" value="user_id" style="rounded=0;whiteSpace=wrap;html=1;" parent="ArlrjNkzWZ5QPUmhL8L5-1" vertex="1">
          <mxGeometry y="50" width="100" height="27" as="geometry" />
        </mxCell>
        <mxCell id="ArlrjNkzWZ5QPUmhL8L5-11" value="products" style="rounded=0;whiteSpace=wrap;html=1;" parent="ArlrjNkzWZ5QPUmhL8L5-1" vertex="1">
          <mxGeometry y="77" width="100" height="43" as="geometry" />
        </mxCell>
        <mxCell id="ArlrjNkzWZ5QPUmhL8L5-52" value="array of string&lt;div&gt;[{product_id}]&lt;/div&gt;" style="rounded=0;whiteSpace=wrap;html=1;" parent="ArlrjNkzWZ5QPUmhL8L5-1" vertex="1">
          <mxGeometry x="100" y="77" width="100" height="43" as="geometry" />
        </mxCell>
        <mxCell id="ArlrjNkzWZ5QPUmhL8L5-7" value="_id" style="rounded=0;whiteSpace=wrap;html=1;" parent="1" vertex="1">
          <mxGeometry x="160" y="183" width="100" height="27" as="geometry" />
        </mxCell>
        <mxCell id="ArlrjNkzWZ5QPUmhL8L5-12" value="user" style="swimlane;whiteSpace=wrap;html=1;fillColor=default;" parent="1" vertex="1">
          <mxGeometry x="440" y="-20" width="350" height="380" as="geometry">
            <mxRectangle x="160" y="160" width="140" height="30" as="alternateBounds" />
          </mxGeometry>
        </mxCell>
        <mxCell id="ArlrjNkzWZ5QPUmhL8L5-13" value="string" style="rounded=0;whiteSpace=wrap;html=1;" parent="ArlrjNkzWZ5QPUmhL8L5-12" vertex="1">
          <mxGeometry x="120" y="23" width="230" height="27" as="geometry" />
        </mxCell>
        <mxCell id="ArlrjNkzWZ5QPUmhL8L5-14" value="string" style="rounded=0;whiteSpace=wrap;html=1;" parent="ArlrjNkzWZ5QPUmhL8L5-12" vertex="1">
          <mxGeometry x="120" y="50" width="230" height="27" as="geometry" />
        </mxCell>
        <mxCell id="ArlrjNkzWZ5QPUmhL8L5-15" value="first_name" style="rounded=0;whiteSpace=wrap;html=1;" parent="ArlrjNkzWZ5QPUmhL8L5-12" vertex="1">
          <mxGeometry y="50" width="120" height="27" as="geometry" />
        </mxCell>
        <mxCell id="ArlrjNkzWZ5QPUmhL8L5-16" value="string" style="rounded=0;whiteSpace=wrap;html=1;" parent="ArlrjNkzWZ5QPUmhL8L5-12" vertex="1">
          <mxGeometry x="120" y="77" width="230" height="27" as="geometry" />
        </mxCell>
        <mxCell id="ArlrjNkzWZ5QPUmhL8L5-17" value="last_name" style="rounded=0;whiteSpace=wrap;html=1;" parent="ArlrjNkzWZ5QPUmhL8L5-12" vertex="1">
          <mxGeometry y="77" width="120" height="27" as="geometry" />
        </mxCell>
        <mxCell id="ArlrjNkzWZ5QPUmhL8L5-19" value="string" style="rounded=0;whiteSpace=wrap;html=1;" parent="ArlrjNkzWZ5QPUmhL8L5-12" vertex="1">
          <mxGeometry x="120" y="104" width="230" height="27" as="geometry" />
        </mxCell>
        <mxCell id="ArlrjNkzWZ5QPUmhL8L5-20" value="email" style="rounded=0;whiteSpace=wrap;html=1;" parent="ArlrjNkzWZ5QPUmhL8L5-12" vertex="1">
          <mxGeometry y="104" width="120" height="27" as="geometry" />
        </mxCell>
        <mxCell id="ArlrjNkzWZ5QPUmhL8L5-22" value="&lt;div&gt;object&lt;/div&gt;{zipcode, number}" style="rounded=0;whiteSpace=wrap;html=1;" parent="ArlrjNkzWZ5QPUmhL8L5-12" vertex="1">
          <mxGeometry x="120" y="131" width="230" height="39" as="geometry" />
        </mxCell>
        <mxCell id="ArlrjNkzWZ5QPUmhL8L5-23" value="contact" style="rounded=0;whiteSpace=wrap;html=1;" parent="ArlrjNkzWZ5QPUmhL8L5-12" vertex="1">
          <mxGeometry y="131" width="120" height="39" as="geometry" />
        </mxCell>
        <mxCell id="ArlrjNkzWZ5QPUmhL8L5-24" value="string" style="rounded=0;whiteSpace=wrap;html=1;" parent="ArlrjNkzWZ5QPUmhL8L5-12" vertex="1">
          <mxGeometry x="120" y="170" width="230" height="27" as="geometry" />
        </mxCell>
        <mxCell id="ArlrjNkzWZ5QPUmhL8L5-25" value="password" style="rounded=0;whiteSpace=wrap;html=1;" parent="ArlrjNkzWZ5QPUmhL8L5-12" vertex="1">
          <mxGeometry y="170" width="120" height="27" as="geometry" />
        </mxCell>
        <mxCell id="ArlrjNkzWZ5QPUmhL8L5-26" value="array&lt;div&gt;[{order_id}]&lt;/div&gt;" style="rounded=0;whiteSpace=wrap;html=1;" parent="ArlrjNkzWZ5QPUmhL8L5-12" vertex="1">
          <mxGeometry x="120" y="242" width="230" height="45" as="geometry" />
        </mxCell>
        <mxCell id="ArlrjNkzWZ5QPUmhL8L5-27" value="order_history" style="rounded=0;whiteSpace=wrap;html=1;" parent="ArlrjNkzWZ5QPUmhL8L5-12" vertex="1">
          <mxGeometry y="242" width="120" height="45" as="geometry" />
        </mxCell>
        <mxCell id="ArlrjNkzWZ5QPUmhL8L5-58" value="enum&lt;div&gt;{individual, business}&lt;/div&gt;" style="rounded=0;whiteSpace=wrap;html=1;" parent="ArlrjNkzWZ5QPUmhL8L5-12" vertex="1">
          <mxGeometry x="120" y="197" width="230" height="45" as="geometry" />
        </mxCell>
        <mxCell id="ArlrjNkzWZ5QPUmhL8L5-59" value="user_type" style="rounded=0;whiteSpace=wrap;html=1;" parent="ArlrjNkzWZ5QPUmhL8L5-12" vertex="1">
          <mxGeometry y="197" width="120" height="45" as="geometry" />
        </mxCell>
        <mxCell id="Zbf8U-U6ExE7YAJPCtKm-8" value="object&lt;div&gt;{type: enum(trial, regular)&lt;/div&gt;&lt;div&gt;pending_duration: last subscription order date(order_id.date)}&lt;/div&gt;" style="rounded=0;whiteSpace=wrap;html=1;" parent="ArlrjNkzWZ5QPUmhL8L5-12" vertex="1">
          <mxGeometry x="120" y="287" width="230" height="83" as="geometry" />
        </mxCell>
        <mxCell id="Zbf8U-U6ExE7YAJPCtKm-9" value="member&lt;div&gt;(for subscription)&lt;/div&gt;" style="rounded=0;whiteSpace=wrap;html=1;" parent="ArlrjNkzWZ5QPUmhL8L5-12" vertex="1">
          <mxGeometry y="287" width="120" height="83" as="geometry" />
        </mxCell>
        <mxCell id="ArlrjNkzWZ5QPUmhL8L5-18" value="_id" style="rounded=0;whiteSpace=wrap;html=1;" parent="1" vertex="1">
          <mxGeometry x="440" y="3" width="120" height="27" as="geometry" />
        </mxCell>
        <mxCell id="ArlrjNkzWZ5QPUmhL8L5-30" style="edgeStyle=orthogonalEdgeStyle;rounded=0;orthogonalLoop=1;jettySize=auto;html=1;exitX=0;exitY=0.5;exitDx=0;exitDy=0;entryX=0;entryY=0.25;entryDx=0;entryDy=0;endArrow=none;endFill=0;" parent="1" source="ArlrjNkzWZ5QPUmhL8L5-9" target="ArlrjNkzWZ5QPUmhL8L5-12" edge="1">
          <mxGeometry relative="1" as="geometry">
            <Array as="points">
              <mxPoint x="120" y="224" />
              <mxPoint x="120" y="20" />
              <mxPoint x="440" y="20" />
            </Array>
          </mxGeometry>
        </mxCell>
        <mxCell id="ArlrjNkzWZ5QPUmhL8L5-33" value="orders" style="swimlane;whiteSpace=wrap;html=1;fillColor=default;" parent="1" vertex="1">
          <mxGeometry x="950" y="10" width="300" height="340" as="geometry">
            <mxRectangle x="160" y="160" width="140" height="30" as="alternateBounds" />
          </mxGeometry>
        </mxCell>
        <mxCell id="ArlrjNkzWZ5QPUmhL8L5-34" value="string" style="rounded=0;whiteSpace=wrap;html=1;" parent="ArlrjNkzWZ5QPUmhL8L5-33" vertex="1">
          <mxGeometry x="100" y="23" width="200" height="27" as="geometry" />
        </mxCell>
        <mxCell id="ArlrjNkzWZ5QPUmhL8L5-35" value="string" style="rounded=0;whiteSpace=wrap;html=1;" parent="ArlrjNkzWZ5QPUmhL8L5-33" vertex="1">
          <mxGeometry x="100" y="50" width="200" height="27" as="geometry" />
        </mxCell>
        <mxCell id="ArlrjNkzWZ5QPUmhL8L5-36" value="user_id" style="rounded=0;whiteSpace=wrap;html=1;" parent="ArlrjNkzWZ5QPUmhL8L5-33" vertex="1">
          <mxGeometry y="50" width="100" height="27" as="geometry" />
        </mxCell>
        <mxCell id="ArlrjNkzWZ5QPUmhL8L5-37" value="string" style="rounded=0;whiteSpace=wrap;html=1;" parent="ArlrjNkzWZ5QPUmhL8L5-33" vertex="1">
          <mxGeometry x="100" y="77" width="200" height="27" as="geometry" />
        </mxCell>
        <mxCell id="ArlrjNkzWZ5QPUmhL8L5-38" value="oder_date" style="rounded=0;whiteSpace=wrap;html=1;" parent="ArlrjNkzWZ5QPUmhL8L5-33" vertex="1">
          <mxGeometry y="77" width="100" height="27" as="geometry" />
        </mxCell>
        <mxCell id="ArlrjNkzWZ5QPUmhL8L5-39" value="&lt;div&gt;enum&lt;/div&gt;{placed, shipped, delivered, cancelled}" style="rounded=0;whiteSpace=wrap;html=1;" parent="ArlrjNkzWZ5QPUmhL8L5-33" vertex="1">
          <mxGeometry x="100" y="104" width="200" height="56" as="geometry" />
        </mxCell>
        <mxCell id="ArlrjNkzWZ5QPUmhL8L5-40" value="status" style="rounded=0;whiteSpace=wrap;html=1;" parent="ArlrjNkzWZ5QPUmhL8L5-33" vertex="1">
          <mxGeometry y="104" width="100" height="56" as="geometry" />
        </mxCell>
        <mxCell id="ArlrjNkzWZ5QPUmhL8L5-47" value="_id" style="rounded=0;whiteSpace=wrap;html=1;" parent="ArlrjNkzWZ5QPUmhL8L5-33" vertex="1">
          <mxGeometry y="23" width="100" height="27" as="geometry" />
        </mxCell>
        <mxCell id="ArlrjNkzWZ5QPUmhL8L5-50" value="array of objects&lt;div&gt;[{product_id, quantity}]&lt;/div&gt;" style="rounded=0;whiteSpace=wrap;html=1;" parent="ArlrjNkzWZ5QPUmhL8L5-33" vertex="1">
          <mxGeometry x="100" y="160" width="200" height="40" as="geometry" />
        </mxCell>
        <mxCell id="ArlrjNkzWZ5QPUmhL8L5-51" value="items" style="rounded=0;whiteSpace=wrap;html=1;" parent="ArlrjNkzWZ5QPUmhL8L5-33" vertex="1">
          <mxGeometry y="160" width="100" height="40" as="geometry" />
        </mxCell>
        <mxCell id="ArlrjNkzWZ5QPUmhL8L5-96" value="enum&lt;div&gt;{cod, online_payment}&lt;/div&gt;" style="rounded=0;whiteSpace=wrap;html=1;" parent="ArlrjNkzWZ5QPUmhL8L5-33" vertex="1">
          <mxGeometry x="100" y="200" width="200" height="40" as="geometry" />
        </mxCell>
        <mxCell id="ArlrjNkzWZ5QPUmhL8L5-97" value="payment_mode" style="rounded=0;whiteSpace=wrap;html=1;" parent="ArlrjNkzWZ5QPUmhL8L5-33" vertex="1">
          <mxGeometry y="200" width="100" height="40" as="geometry" />
        </mxCell>
        <mxCell id="ArlrjNkzWZ5QPUmhL8L5-98" value="object" style="rounded=0;whiteSpace=wrap;html=1;" parent="ArlrjNkzWZ5QPUmhL8L5-33" vertex="1">
          <mxGeometry x="100" y="240" width="200" height="40" as="geometry" />
        </mxCell>
        <mxCell id="ArlrjNkzWZ5QPUmhL8L5-99" value="payment_details" style="rounded=0;whiteSpace=wrap;html=1;" parent="ArlrjNkzWZ5QPUmhL8L5-33" vertex="1">
          <mxGeometry y="240" width="100" height="40" as="geometry" />
        </mxCell>
        <mxCell id="Zbf8U-U6ExE7YAJPCtKm-12" value="boolean" style="rounded=0;whiteSpace=wrap;html=1;" parent="ArlrjNkzWZ5QPUmhL8L5-33" vertex="1">
          <mxGeometry x="100" y="280" width="200" height="40" as="geometry" />
        </mxCell>
        <mxCell id="Zbf8U-U6ExE7YAJPCtKm-13" value="isSubscription" style="rounded=0;whiteSpace=wrap;html=1;" parent="ArlrjNkzWZ5QPUmhL8L5-33" vertex="1">
          <mxGeometry y="280" width="100" height="40" as="geometry" />
        </mxCell>
        <mxCell id="ArlrjNkzWZ5QPUmhL8L5-60" value="product" style="swimlane;whiteSpace=wrap;html=1;fillColor=default;" parent="1" vertex="1">
          <mxGeometry x="840" y="440" width="320" height="320" as="geometry">
            <mxRectangle x="160" y="160" width="140" height="30" as="alternateBounds" />
          </mxGeometry>
        </mxCell>
        <mxCell id="ArlrjNkzWZ5QPUmhL8L5-61" value="string" style="rounded=0;whiteSpace=wrap;html=1;" parent="ArlrjNkzWZ5QPUmhL8L5-60" vertex="1">
          <mxGeometry x="160" y="23" width="160" height="27" as="geometry" />
        </mxCell>
        <mxCell id="ArlrjNkzWZ5QPUmhL8L5-62" value="string" style="rounded=0;whiteSpace=wrap;html=1;" parent="ArlrjNkzWZ5QPUmhL8L5-60" vertex="1">
          <mxGeometry x="160" y="50" width="160" height="27" as="geometry" />
        </mxCell>
        <mxCell id="ArlrjNkzWZ5QPUmhL8L5-63" value="name" style="rounded=0;whiteSpace=wrap;html=1;" parent="ArlrjNkzWZ5QPUmhL8L5-60" vertex="1">
          <mxGeometry y="50" width="160" height="27" as="geometry" />
        </mxCell>
        <mxCell id="ArlrjNkzWZ5QPUmhL8L5-64" value="string" style="rounded=0;whiteSpace=wrap;html=1;" parent="ArlrjNkzWZ5QPUmhL8L5-60" vertex="1">
          <mxGeometry x="160" y="77" width="160" height="27" as="geometry" />
        </mxCell>
        <mxCell id="ArlrjNkzWZ5QPUmhL8L5-65" value="description" style="rounded=0;whiteSpace=wrap;html=1;" parent="ArlrjNkzWZ5QPUmhL8L5-60" vertex="1">
          <mxGeometry y="77" width="160" height="27" as="geometry" />
        </mxCell>
        <mxCell id="ArlrjNkzWZ5QPUmhL8L5-68" value="_id" style="rounded=0;whiteSpace=wrap;html=1;" parent="ArlrjNkzWZ5QPUmhL8L5-60" vertex="1">
          <mxGeometry y="23" width="160" height="27" as="geometry" />
        </mxCell>
        <mxCell id="ArlrjNkzWZ5QPUmhL8L5-72" value="string" style="rounded=0;whiteSpace=wrap;html=1;" parent="ArlrjNkzWZ5QPUmhL8L5-60" vertex="1">
          <mxGeometry x="160" y="104" width="160" height="27" as="geometry" />
        </mxCell>
        <mxCell id="ArlrjNkzWZ5QPUmhL8L5-73" value="category_id" style="rounded=0;whiteSpace=wrap;html=1;" parent="ArlrjNkzWZ5QPUmhL8L5-60" vertex="1">
          <mxGeometry y="104" width="160" height="27" as="geometry" />
        </mxCell>
        <mxCell id="ArlrjNkzWZ5QPUmhL8L5-74" value="boolean" style="rounded=0;whiteSpace=wrap;html=1;" parent="ArlrjNkzWZ5QPUmhL8L5-60" vertex="1">
          <mxGeometry x="160" y="131" width="160" height="27" as="geometry" />
        </mxCell>
        <mxCell id="ArlrjNkzWZ5QPUmhL8L5-75" value="isAvailableForSubscription" style="rounded=0;whiteSpace=wrap;html=1;" parent="ArlrjNkzWZ5QPUmhL8L5-60" vertex="1">
          <mxGeometry y="131" width="160" height="27" as="geometry" />
        </mxCell>
        <mxCell id="ArlrjNkzWZ5QPUmhL8L5-76" value="enum&lt;div&gt;[ml, L, kg, g, none, dozen]&lt;/div&gt;" style="rounded=0;whiteSpace=wrap;html=1;" parent="ArlrjNkzWZ5QPUmhL8L5-60" vertex="1">
          <mxGeometry x="160" y="158" width="160" height="42" as="geometry" />
        </mxCell>
        <mxCell id="ArlrjNkzWZ5QPUmhL8L5-77" value="unit" style="rounded=0;whiteSpace=wrap;html=1;" parent="ArlrjNkzWZ5QPUmhL8L5-60" vertex="1">
          <mxGeometry y="158" width="160" height="42" as="geometry" />
        </mxCell>
        <mxCell id="ArlrjNkzWZ5QPUmhL8L5-78" value="array of string&lt;div&gt;[thumbnail, main_img, (optional, front and back img)]&lt;/div&gt;" style="rounded=0;whiteSpace=wrap;html=1;" parent="ArlrjNkzWZ5QPUmhL8L5-60" vertex="1">
          <mxGeometry x="160" y="200" width="160" height="70" as="geometry" />
        </mxCell>
        <mxCell id="ArlrjNkzWZ5QPUmhL8L5-79" value="image_url" style="rounded=0;whiteSpace=wrap;html=1;" parent="ArlrjNkzWZ5QPUmhL8L5-60" vertex="1">
          <mxGeometry y="200" width="160" height="70" as="geometry" />
        </mxCell>
        <mxCell id="ArlrjNkzWZ5QPUmhL8L5-80" value="array of object&lt;div&gt;[{quntity, unit_price, stock}]&lt;/div&gt;" style="rounded=0;whiteSpace=wrap;html=1;" parent="ArlrjNkzWZ5QPUmhL8L5-60" vertex="1">
          <mxGeometry x="160" y="270" width="160" height="40" as="geometry" />
        </mxCell>
        <mxCell id="ArlrjNkzWZ5QPUmhL8L5-81" value="variants" style="rounded=0;whiteSpace=wrap;html=1;" parent="ArlrjNkzWZ5QPUmhL8L5-60" vertex="1">
          <mxGeometry y="270" width="160" height="40" as="geometry" />
        </mxCell>
        <mxCell id="ArlrjNkzWZ5QPUmhL8L5-85" style="edgeStyle=orthogonalEdgeStyle;rounded=0;orthogonalLoop=1;jettySize=auto;html=1;exitX=1;exitY=0.5;exitDx=0;exitDy=0;entryX=0;entryY=0.5;entryDx=0;entryDy=0;endArrow=none;endFill=0;" parent="1" source="ArlrjNkzWZ5QPUmhL8L5-52" target="ArlrjNkzWZ5QPUmhL8L5-68" edge="1">
          <mxGeometry relative="1" as="geometry">
            <Array as="points">
              <mxPoint x="390" y="259" />
              <mxPoint x="390" y="380" />
              <mxPoint x="600" y="380" />
              <mxPoint x="600" y="397" />
              <mxPoint x="800" y="397" />
              <mxPoint x="800" y="477" />
            </Array>
          </mxGeometry>
        </mxCell>
        <mxCell id="ArlrjNkzWZ5QPUmhL8L5-88" value="category" style="swimlane;whiteSpace=wrap;html=1;fillColor=default;" parent="1" vertex="1">
          <mxGeometry x="570" y="630" width="200" height="90" as="geometry">
            <mxRectangle x="160" y="160" width="140" height="30" as="alternateBounds" />
          </mxGeometry>
        </mxCell>
        <mxCell id="ArlrjNkzWZ5QPUmhL8L5-89" value="string" style="rounded=0;whiteSpace=wrap;html=1;" parent="ArlrjNkzWZ5QPUmhL8L5-88" vertex="1">
          <mxGeometry x="100" y="23" width="100" height="27" as="geometry" />
        </mxCell>
        <mxCell id="ArlrjNkzWZ5QPUmhL8L5-90" value="string" style="rounded=0;whiteSpace=wrap;html=1;" parent="ArlrjNkzWZ5QPUmhL8L5-88" vertex="1">
          <mxGeometry x="100" y="50" width="100" height="27" as="geometry" />
        </mxCell>
        <mxCell id="ArlrjNkzWZ5QPUmhL8L5-91" value="name" style="rounded=0;whiteSpace=wrap;html=1;" parent="ArlrjNkzWZ5QPUmhL8L5-88" vertex="1">
          <mxGeometry y="50" width="100" height="27" as="geometry" />
        </mxCell>
        <mxCell id="ArlrjNkzWZ5QPUmhL8L5-94" value="_id" style="rounded=0;whiteSpace=wrap;html=1;" parent="ArlrjNkzWZ5QPUmhL8L5-88" vertex="1">
          <mxGeometry y="23" width="100" height="27" as="geometry" />
        </mxCell>
        <mxCell id="ArlrjNkzWZ5QPUmhL8L5-103" value="subscription" style="swimlane;whiteSpace=wrap;html=1;fillColor=default;" parent="1" vertex="1">
          <mxGeometry x="260" y="420" width="230" height="195" as="geometry">
            <mxRectangle x="160" y="160" width="140" height="30" as="alternateBounds" />
          </mxGeometry>
        </mxCell>
        <mxCell id="ArlrjNkzWZ5QPUmhL8L5-104" value="string" style="rounded=0;whiteSpace=wrap;html=1;" parent="ArlrjNkzWZ5QPUmhL8L5-103" vertex="1">
          <mxGeometry x="100" y="23" width="130" height="27" as="geometry" />
        </mxCell>
        <mxCell id="ArlrjNkzWZ5QPUmhL8L5-105" value="string" style="rounded=0;whiteSpace=wrap;html=1;" parent="ArlrjNkzWZ5QPUmhL8L5-103" vertex="1">
          <mxGeometry x="100" y="50" width="130" height="27" as="geometry" />
        </mxCell>
        <mxCell id="ArlrjNkzWZ5QPUmhL8L5-106" value="user_id" style="rounded=0;whiteSpace=wrap;html=1;" parent="ArlrjNkzWZ5QPUmhL8L5-103" vertex="1">
          <mxGeometry y="50" width="100" height="27" as="geometry" />
        </mxCell>
        <mxCell id="ArlrjNkzWZ5QPUmhL8L5-111" value="_id" style="rounded=0;whiteSpace=wrap;html=1;" parent="ArlrjNkzWZ5QPUmhL8L5-103" vertex="1">
          <mxGeometry y="23" width="100" height="27" as="geometry" />
        </mxCell>
        <mxCell id="ArlrjNkzWZ5QPUmhL8L5-118" value="enum&lt;div&gt;{1 week(trial), 1 month}&lt;/div&gt;" style="rounded=0;whiteSpace=wrap;html=1;" parent="ArlrjNkzWZ5QPUmhL8L5-103" vertex="1">
          <mxGeometry x="100" y="77" width="130" height="63" as="geometry" />
        </mxCell>
        <mxCell id="ArlrjNkzWZ5QPUmhL8L5-119" value="duration" style="rounded=0;whiteSpace=wrap;html=1;" parent="ArlrjNkzWZ5QPUmhL8L5-103" vertex="1">
          <mxGeometry y="77" width="100" height="63" as="geometry" />
        </mxCell>
        <mxCell id="ArlrjNkzWZ5QPUmhL8L5-120" value="products" style="rounded=0;whiteSpace=wrap;html=1;" parent="ArlrjNkzWZ5QPUmhL8L5-103" vertex="1">
          <mxGeometry y="140" width="100" height="43" as="geometry" />
        </mxCell>
        <mxCell id="ArlrjNkzWZ5QPUmhL8L5-121" value="array of string&lt;div&gt;[{product_id}]&lt;/div&gt;" style="rounded=0;whiteSpace=wrap;html=1;" parent="ArlrjNkzWZ5QPUmhL8L5-103" vertex="1">
          <mxGeometry x="100" y="140" width="130" height="43" as="geometry" />
        </mxCell>
        <mxCell id="ArlrjNkzWZ5QPUmhL8L5-124" style="edgeStyle=orthogonalEdgeStyle;rounded=0;orthogonalLoop=1;jettySize=auto;html=1;exitX=1;exitY=0.5;exitDx=0;exitDy=0;entryX=0;entryY=0.5;entryDx=0;entryDy=0;endArrow=none;endFill=0;" parent="1" source="ArlrjNkzWZ5QPUmhL8L5-121" target="ArlrjNkzWZ5QPUmhL8L5-68" edge="1">
          <mxGeometry relative="1" as="geometry" />
        </mxCell>
        <mxCell id="ArlrjNkzWZ5QPUmhL8L5-126" style="edgeStyle=orthogonalEdgeStyle;rounded=0;orthogonalLoop=1;jettySize=auto;html=1;exitX=0;exitY=0.5;exitDx=0;exitDy=0;entryX=0;entryY=0.5;entryDx=0;entryDy=0;endArrow=none;endFill=0;" parent="1" source="ArlrjNkzWZ5QPUmhL8L5-94" target="ArlrjNkzWZ5QPUmhL8L5-73" edge="1">
          <mxGeometry relative="1" as="geometry" />
        </mxCell>
        <mxCell id="ArlrjNkzWZ5QPUmhL8L5-127" style="edgeStyle=orthogonalEdgeStyle;rounded=0;orthogonalLoop=1;jettySize=auto;html=1;exitX=0;exitY=0.5;exitDx=0;exitDy=0;entryX=0;entryY=0.5;entryDx=0;entryDy=0;endArrow=none;endFill=0;" parent="1" source="ArlrjNkzWZ5QPUmhL8L5-106" target="ArlrjNkzWZ5QPUmhL8L5-18" edge="1">
          <mxGeometry relative="1" as="geometry">
            <Array as="points">
              <mxPoint x="220" y="484" />
              <mxPoint x="220" y="350" />
              <mxPoint x="410" y="350" />
              <mxPoint x="410" y="20" />
              <mxPoint x="440" y="20" />
            </Array>
          </mxGeometry>
        </mxCell>
        <mxCell id="Zbf8U-U6ExE7YAJPCtKm-1" style="edgeStyle=orthogonalEdgeStyle;rounded=0;orthogonalLoop=1;jettySize=auto;html=1;exitX=1;exitY=0.5;exitDx=0;exitDy=0;entryX=0;entryY=0.5;entryDx=0;entryDy=0;endArrow=none;endFill=0;" parent="1" source="ArlrjNkzWZ5QPUmhL8L5-50" target="ArlrjNkzWZ5QPUmhL8L5-68" edge="1">
          <mxGeometry relative="1" as="geometry">
            <Array as="points">
              <mxPoint x="1250" y="220" />
              <mxPoint x="1280" y="220" />
              <mxPoint x="1280" y="410" />
              <mxPoint x="820" y="410" />
              <mxPoint x="820" y="477" />
            </Array>
          </mxGeometry>
        </mxCell>
        <mxCell id="Zbf8U-U6ExE7YAJPCtKm-14" style="edgeStyle=orthogonalEdgeStyle;rounded=0;orthogonalLoop=1;jettySize=auto;html=1;exitX=0;exitY=0.5;exitDx=0;exitDy=0;entryX=0;entryY=0.5;entryDx=0;entryDy=0;endArrow=none;endFill=0;" parent="1" source="ArlrjNkzWZ5QPUmhL8L5-36" target="ArlrjNkzWZ5QPUmhL8L5-18" edge="1">
          <mxGeometry relative="1" as="geometry">
            <Array as="points">
              <mxPoint x="910" y="74" />
              <mxPoint x="910" y="-60" />
              <mxPoint x="420" y="-60" />
              <mxPoint x="420" y="17" />
            </Array>
          </mxGeometry>
        </mxCell>
        <mxCell id="Zbf8U-U6ExE7YAJPCtKm-15" style="edgeStyle=orthogonalEdgeStyle;rounded=0;orthogonalLoop=1;jettySize=auto;html=1;exitX=0;exitY=0.5;exitDx=0;exitDy=0;entryX=0.997;entryY=0.59;entryDx=0;entryDy=0;entryPerimeter=0;endArrow=none;endFill=0;" parent="1" source="ArlrjNkzWZ5QPUmhL8L5-38" target="Zbf8U-U6ExE7YAJPCtKm-8" edge="1">
          <mxGeometry relative="1" as="geometry" />
        </mxCell>
        <mxCell id="cRBw1HmZobIP4URmoxio-2" style="edgeStyle=orthogonalEdgeStyle;rounded=0;orthogonalLoop=1;jettySize=auto;html=1;exitX=1;exitY=0.5;exitDx=0;exitDy=0;entryX=0;entryY=0.5;entryDx=0;entryDy=0;endArrow=none;endFill=0;" parent="1" source="ArlrjNkzWZ5QPUmhL8L5-26" target="ArlrjNkzWZ5QPUmhL8L5-47" edge="1">
          <mxGeometry relative="1" as="geometry">
            <Array as="points">
              <mxPoint x="850" y="245" />
              <mxPoint x="850" y="47" />
            </Array>
          </mxGeometry>
        </mxCell>
        <mxCell id="cRBw1HmZobIP4URmoxio-5" value="user contact info" style="swimlane;whiteSpace=wrap;html=1;fillColor=default;" parent="1" vertex="1">
          <mxGeometry x="1860" y="-240" width="220" height="400" as="geometry">
            <mxRectangle x="160" y="160" width="140" height="30" as="alternateBounds" />
          </mxGeometry>
        </mxCell>
        <mxCell id="cRBw1HmZobIP4URmoxio-6" value="string" style="rounded=0;whiteSpace=wrap;html=1;" parent="cRBw1HmZobIP4URmoxio-5" vertex="1">
          <mxGeometry x="100" y="23" width="120" height="27" as="geometry" />
        </mxCell>
        <mxCell id="cRBw1HmZobIP4URmoxio-7" value="string" style="rounded=0;whiteSpace=wrap;html=1;" parent="cRBw1HmZobIP4URmoxio-5" vertex="1">
          <mxGeometry x="100" y="50" width="120" height="27" as="geometry" />
        </mxCell>
        <mxCell id="cRBw1HmZobIP4URmoxio-8" value="user_id" style="rounded=0;whiteSpace=wrap;html=1;" parent="cRBw1HmZobIP4URmoxio-5" vertex="1">
          <mxGeometry y="50" width="100" height="27" as="geometry" />
        </mxCell>
        <mxCell id="cRBw1HmZobIP4URmoxio-11" value="_id" style="rounded=0;whiteSpace=wrap;html=1;" parent="cRBw1HmZobIP4URmoxio-5" vertex="1">
          <mxGeometry y="23" width="100" height="27" as="geometry" />
        </mxCell>
        <mxCell id="cRBw1HmZobIP4URmoxio-12" value="string" style="rounded=0;whiteSpace=wrap;html=1;" parent="cRBw1HmZobIP4URmoxio-5" vertex="1">
          <mxGeometry x="100" y="77" width="120" height="27" as="geometry" />
        </mxCell>
        <mxCell id="cRBw1HmZobIP4URmoxio-13" value="address_line_1" style="rounded=0;whiteSpace=wrap;html=1;" parent="cRBw1HmZobIP4URmoxio-5" vertex="1">
          <mxGeometry y="77" width="100" height="27" as="geometry" />
        </mxCell>
        <mxCell id="cRBw1HmZobIP4URmoxio-14" value="string" style="rounded=0;whiteSpace=wrap;html=1;" parent="cRBw1HmZobIP4URmoxio-5" vertex="1">
          <mxGeometry x="100" y="104" width="120" height="27" as="geometry" />
        </mxCell>
        <mxCell id="cRBw1HmZobIP4URmoxio-15" value="address_line_2" style="rounded=0;whiteSpace=wrap;html=1;" parent="cRBw1HmZobIP4URmoxio-5" vertex="1">
          <mxGeometry y="104" width="100" height="27" as="geometry" />
        </mxCell>
        <mxCell id="cRBw1HmZobIP4URmoxio-16" value="string" style="rounded=0;whiteSpace=wrap;html=1;" parent="cRBw1HmZobIP4URmoxio-5" vertex="1">
          <mxGeometry x="100" y="131" width="120" height="27" as="geometry" />
        </mxCell>
        <mxCell id="cRBw1HmZobIP4URmoxio-17" value="city" style="rounded=0;whiteSpace=wrap;html=1;" parent="cRBw1HmZobIP4URmoxio-5" vertex="1">
          <mxGeometry y="131" width="100" height="27" as="geometry" />
        </mxCell>
        <mxCell id="cRBw1HmZobIP4URmoxio-18" value="string" style="rounded=0;whiteSpace=wrap;html=1;" parent="cRBw1HmZobIP4URmoxio-5" vertex="1">
          <mxGeometry x="100" y="158" width="120" height="27" as="geometry" />
        </mxCell>
        <mxCell id="cRBw1HmZobIP4URmoxio-19" value="district" style="rounded=0;whiteSpace=wrap;html=1;" parent="cRBw1HmZobIP4URmoxio-5" vertex="1">
          <mxGeometry y="158" width="100" height="27" as="geometry" />
        </mxCell>
        <mxCell id="cRBw1HmZobIP4URmoxio-20" value="string" style="rounded=0;whiteSpace=wrap;html=1;" parent="cRBw1HmZobIP4URmoxio-5" vertex="1">
          <mxGeometry x="100" y="185" width="120" height="27" as="geometry" />
        </mxCell>
        <mxCell id="cRBw1HmZobIP4URmoxio-21" value="state" style="rounded=0;whiteSpace=wrap;html=1;" parent="cRBw1HmZobIP4URmoxio-5" vertex="1">
          <mxGeometry y="185" width="100" height="27" as="geometry" />
        </mxCell>
        <mxCell id="cRBw1HmZobIP4URmoxio-22" value="string" style="rounded=0;whiteSpace=wrap;html=1;" parent="cRBw1HmZobIP4URmoxio-5" vertex="1">
          <mxGeometry x="100" y="212" width="120" height="27" as="geometry" />
        </mxCell>
        <mxCell id="cRBw1HmZobIP4URmoxio-23" value="country" style="rounded=0;whiteSpace=wrap;html=1;" parent="cRBw1HmZobIP4URmoxio-5" vertex="1">
          <mxGeometry y="212" width="100" height="27" as="geometry" />
        </mxCell>
        <mxCell id="cRBw1HmZobIP4URmoxio-24" value="string" style="rounded=0;whiteSpace=wrap;html=1;" parent="cRBw1HmZobIP4URmoxio-5" vertex="1">
          <mxGeometry x="100" y="239" width="120" height="27" as="geometry" />
        </mxCell>
        <mxCell id="cRBw1HmZobIP4URmoxio-25" value="postal_code" style="rounded=0;whiteSpace=wrap;html=1;" parent="cRBw1HmZobIP4URmoxio-5" vertex="1">
          <mxGeometry y="239" width="100" height="27" as="geometry" />
        </mxCell>
        <mxCell id="cRBw1HmZobIP4URmoxio-27" value="email" style="rounded=0;whiteSpace=wrap;html=1;" parent="cRBw1HmZobIP4URmoxio-5" vertex="1">
          <mxGeometry y="266" width="100" height="27" as="geometry" />
        </mxCell>
        <mxCell id="cRBw1HmZobIP4URmoxio-26" value="string" style="rounded=0;whiteSpace=wrap;html=1;" parent="cRBw1HmZobIP4URmoxio-5" vertex="1">
          <mxGeometry x="100" y="266" width="120" height="27" as="geometry" />
        </mxCell>
        <mxCell id="cRBw1HmZobIP4URmoxio-29" value="contact" style="rounded=0;whiteSpace=wrap;html=1;" parent="cRBw1HmZobIP4URmoxio-5" vertex="1">
          <mxGeometry y="293" width="100" height="39" as="geometry" />
        </mxCell>
        <mxCell id="cRBw1HmZobIP4URmoxio-28" value="&lt;div&gt;object&lt;/div&gt;{zipcode, number}" style="rounded=0;whiteSpace=wrap;html=1;" parent="cRBw1HmZobIP4URmoxio-5" vertex="1">
          <mxGeometry x="100" y="293" width="120" height="39" as="geometry" />
        </mxCell>
        <mxCell id="cRBw1HmZobIP4URmoxio-114" value="created_at" style="rounded=0;whiteSpace=wrap;html=1;" parent="cRBw1HmZobIP4URmoxio-5" vertex="1">
          <mxGeometry y="332" width="100" height="28" as="geometry" />
        </mxCell>
        <mxCell id="cRBw1HmZobIP4URmoxio-115" value="timestamps&lt;div&gt;&lt;/div&gt;" style="rounded=0;whiteSpace=wrap;html=1;" parent="cRBw1HmZobIP4URmoxio-5" vertex="1">
          <mxGeometry x="100" y="332" width="120" height="28" as="geometry" />
        </mxCell>
        <mxCell id="cRBw1HmZobIP4URmoxio-116" value="updated_at" style="rounded=0;whiteSpace=wrap;html=1;" parent="cRBw1HmZobIP4URmoxio-5" vertex="1">
          <mxGeometry y="360" width="100" height="28" as="geometry" />
        </mxCell>
        <mxCell id="cRBw1HmZobIP4URmoxio-117" value="timestamps&lt;div&gt;&lt;/div&gt;" style="rounded=0;whiteSpace=wrap;html=1;" parent="cRBw1HmZobIP4URmoxio-5" vertex="1">
          <mxGeometry x="100" y="360" width="120" height="28" as="geometry" />
        </mxCell>
        <mxCell id="cRBw1HmZobIP4URmoxio-30" value="cart" style="swimlane;whiteSpace=wrap;html=1;fillColor=default;" parent="1" vertex="1">
          <mxGeometry x="1880" y="200" width="200" height="130" as="geometry">
            <mxRectangle x="160" y="160" width="140" height="30" as="alternateBounds" />
          </mxGeometry>
        </mxCell>
        <mxCell id="cRBw1HmZobIP4URmoxio-31" value="string" style="rounded=0;whiteSpace=wrap;html=1;" parent="cRBw1HmZobIP4URmoxio-30" vertex="1">
          <mxGeometry x="100" y="23" width="100" height="27" as="geometry" />
        </mxCell>
        <mxCell id="cRBw1HmZobIP4URmoxio-32" value="string" style="rounded=0;whiteSpace=wrap;html=1;" parent="cRBw1HmZobIP4URmoxio-30" vertex="1">
          <mxGeometry x="100" y="50" width="100" height="27" as="geometry" />
        </mxCell>
        <mxCell id="cRBw1HmZobIP4URmoxio-33" value="user_id" style="rounded=0;whiteSpace=wrap;html=1;" parent="cRBw1HmZobIP4URmoxio-30" vertex="1">
          <mxGeometry y="50" width="100" height="27" as="geometry" />
        </mxCell>
        <mxCell id="cRBw1HmZobIP4URmoxio-34" value="products" style="rounded=0;whiteSpace=wrap;html=1;" parent="cRBw1HmZobIP4URmoxio-30" vertex="1">
          <mxGeometry y="77" width="100" height="43" as="geometry" />
        </mxCell>
        <mxCell id="cRBw1HmZobIP4URmoxio-35" value="array of string&lt;div&gt;[{product_id}]&lt;/div&gt;" style="rounded=0;whiteSpace=wrap;html=1;" parent="cRBw1HmZobIP4URmoxio-30" vertex="1">
          <mxGeometry x="100" y="77" width="100" height="43" as="geometry" />
        </mxCell>
        <mxCell id="cRBw1HmZobIP4URmoxio-36" value="_id" style="rounded=0;whiteSpace=wrap;html=1;" parent="cRBw1HmZobIP4URmoxio-30" vertex="1">
          <mxGeometry y="23" width="100" height="27" as="geometry" />
        </mxCell>
        <mxCell id="cRBw1HmZobIP4URmoxio-37" value="user" style="swimlane;whiteSpace=wrap;html=1;fillColor=default;" parent="1" vertex="1">
          <mxGeometry x="2230" y="-240" width="350" height="460" as="geometry">
            <mxRectangle x="160" y="160" width="140" height="30" as="alternateBounds" />
          </mxGeometry>
        </mxCell>
        <mxCell id="cRBw1HmZobIP4URmoxio-38" value="string" style="rounded=0;whiteSpace=wrap;html=1;" parent="cRBw1HmZobIP4URmoxio-37" vertex="1">
          <mxGeometry x="120" y="23" width="230" height="27" as="geometry" />
        </mxCell>
        <mxCell id="cRBw1HmZobIP4URmoxio-39" value="string" style="rounded=0;whiteSpace=wrap;html=1;" parent="cRBw1HmZobIP4URmoxio-37" vertex="1">
          <mxGeometry x="120" y="50" width="230" height="27" as="geometry" />
        </mxCell>
        <mxCell id="cRBw1HmZobIP4URmoxio-40" value="first_name" style="rounded=0;whiteSpace=wrap;html=1;" parent="cRBw1HmZobIP4URmoxio-37" vertex="1">
          <mxGeometry y="50" width="120" height="27" as="geometry" />
        </mxCell>
        <mxCell id="cRBw1HmZobIP4URmoxio-41" value="string" style="rounded=0;whiteSpace=wrap;html=1;" parent="cRBw1HmZobIP4URmoxio-37" vertex="1">
          <mxGeometry x="120" y="77" width="230" height="27" as="geometry" />
        </mxCell>
        <mxCell id="cRBw1HmZobIP4URmoxio-42" value="last_name" style="rounded=0;whiteSpace=wrap;html=1;" parent="cRBw1HmZobIP4URmoxio-37" vertex="1">
          <mxGeometry y="77" width="120" height="27" as="geometry" />
        </mxCell>
        <mxCell id="cRBw1HmZobIP4URmoxio-47" value="string" style="rounded=0;whiteSpace=wrap;html=1;" parent="cRBw1HmZobIP4URmoxio-37" vertex="1">
          <mxGeometry x="120" y="104" width="230" height="27" as="geometry" />
        </mxCell>
        <mxCell id="cRBw1HmZobIP4URmoxio-48" value="password" style="rounded=0;whiteSpace=wrap;html=1;" parent="cRBw1HmZobIP4URmoxio-37" vertex="1">
          <mxGeometry y="104" width="120" height="27" as="geometry" />
        </mxCell>
        <mxCell id="cRBw1HmZobIP4URmoxio-49" value="array&lt;div&gt;[{order_id}]&lt;/div&gt;" style="rounded=0;whiteSpace=wrap;html=1;" parent="cRBw1HmZobIP4URmoxio-37" vertex="1">
          <mxGeometry x="120" y="176" width="230" height="45" as="geometry" />
        </mxCell>
        <mxCell id="cRBw1HmZobIP4URmoxio-50" value="order_history" style="rounded=0;whiteSpace=wrap;html=1;" parent="cRBw1HmZobIP4URmoxio-37" vertex="1">
          <mxGeometry y="176" width="120" height="45" as="geometry" />
        </mxCell>
        <mxCell id="cRBw1HmZobIP4URmoxio-51" value="enum&lt;div&gt;{individual, business}&lt;/div&gt;" style="rounded=0;whiteSpace=wrap;html=1;" parent="cRBw1HmZobIP4URmoxio-37" vertex="1">
          <mxGeometry x="120" y="131" width="230" height="45" as="geometry" />
        </mxCell>
        <mxCell id="cRBw1HmZobIP4URmoxio-52" value="user_type" style="rounded=0;whiteSpace=wrap;html=1;" parent="cRBw1HmZobIP4URmoxio-37" vertex="1">
          <mxGeometry y="131" width="120" height="45" as="geometry" />
        </mxCell>
        <mxCell id="cRBw1HmZobIP4URmoxio-53" value="object&lt;div&gt;{type: enum(trial, regular)&lt;/div&gt;&lt;div&gt;pending_duration: last subscription order date(order_id.date)}&lt;/div&gt;" style="rounded=0;whiteSpace=wrap;html=1;" parent="cRBw1HmZobIP4URmoxio-37" vertex="1">
          <mxGeometry x="120" y="221" width="230" height="83" as="geometry" />
        </mxCell>
        <mxCell id="cRBw1HmZobIP4URmoxio-54" value="member&lt;div&gt;(for subscription)&lt;/div&gt;" style="rounded=0;whiteSpace=wrap;html=1;" parent="cRBw1HmZobIP4URmoxio-37" vertex="1">
          <mxGeometry y="221" width="120" height="83" as="geometry" />
        </mxCell>
        <mxCell id="cRBw1HmZobIP4URmoxio-118" value="created_at" style="rounded=0;whiteSpace=wrap;html=1;" parent="cRBw1HmZobIP4URmoxio-37" vertex="1">
          <mxGeometry y="304" width="120" height="28" as="geometry" />
        </mxCell>
        <mxCell id="cRBw1HmZobIP4URmoxio-119" value="timestamps&lt;div&gt;&lt;/div&gt;" style="rounded=0;whiteSpace=wrap;html=1;" parent="cRBw1HmZobIP4URmoxio-37" vertex="1">
          <mxGeometry x="120" y="304" width="230" height="28" as="geometry" />
        </mxCell>
        <mxCell id="cRBw1HmZobIP4URmoxio-120" value="updated_at" style="rounded=0;whiteSpace=wrap;html=1;" parent="cRBw1HmZobIP4URmoxio-37" vertex="1">
          <mxGeometry y="332" width="120" height="28" as="geometry" />
        </mxCell>
        <mxCell id="cRBw1HmZobIP4URmoxio-121" value="timestamps&lt;div&gt;&lt;/div&gt;" style="rounded=0;whiteSpace=wrap;html=1;" parent="cRBw1HmZobIP4URmoxio-37" vertex="1">
          <mxGeometry x="120" y="332" width="230" height="28" as="geometry" />
        </mxCell>
        <mxCell id="cRBw1HmZobIP4URmoxio-55" value="_id" style="rounded=0;whiteSpace=wrap;html=1;" parent="cRBw1HmZobIP4URmoxio-37" vertex="1">
          <mxGeometry y="23" width="120" height="27" as="geometry" />
        </mxCell>
        <mxCell id="cRBw1HmZobIP4URmoxio-57" value="orders" style="swimlane;whiteSpace=wrap;html=1;fillColor=default;" parent="1" vertex="1">
          <mxGeometry x="3370" y="160" width="300" height="340" as="geometry">
            <mxRectangle x="160" y="160" width="140" height="30" as="alternateBounds" />
          </mxGeometry>
        </mxCell>
        <mxCell id="cRBw1HmZobIP4URmoxio-58" value="string" style="rounded=0;whiteSpace=wrap;html=1;" parent="cRBw1HmZobIP4URmoxio-57" vertex="1">
          <mxGeometry x="100" y="23" width="200" height="27" as="geometry" />
        </mxCell>
        <mxCell id="cRBw1HmZobIP4URmoxio-59" value="string" style="rounded=0;whiteSpace=wrap;html=1;" parent="cRBw1HmZobIP4URmoxio-57" vertex="1">
          <mxGeometry x="100" y="50" width="200" height="27" as="geometry" />
        </mxCell>
        <mxCell id="cRBw1HmZobIP4URmoxio-60" value="user_id" style="rounded=0;whiteSpace=wrap;html=1;" parent="cRBw1HmZobIP4URmoxio-57" vertex="1">
          <mxGeometry y="50" width="100" height="27" as="geometry" />
        </mxCell>
        <mxCell id="cRBw1HmZobIP4URmoxio-61" value="string" style="rounded=0;whiteSpace=wrap;html=1;" parent="cRBw1HmZobIP4URmoxio-57" vertex="1">
          <mxGeometry x="100" y="77" width="200" height="27" as="geometry" />
        </mxCell>
        <mxCell id="cRBw1HmZobIP4URmoxio-62" value="oder_date" style="rounded=0;whiteSpace=wrap;html=1;" parent="cRBw1HmZobIP4URmoxio-57" vertex="1">
          <mxGeometry y="77" width="100" height="27" as="geometry" />
        </mxCell>
        <mxCell id="cRBw1HmZobIP4URmoxio-63" value="&lt;div&gt;enum&lt;/div&gt;{placed, shipped, delivered, cancelled}" style="rounded=0;whiteSpace=wrap;html=1;" parent="cRBw1HmZobIP4URmoxio-57" vertex="1">
          <mxGeometry x="100" y="104" width="200" height="56" as="geometry" />
        </mxCell>
        <mxCell id="cRBw1HmZobIP4URmoxio-64" value="status" style="rounded=0;whiteSpace=wrap;html=1;" parent="cRBw1HmZobIP4URmoxio-57" vertex="1">
          <mxGeometry y="104" width="100" height="56" as="geometry" />
        </mxCell>
        <mxCell id="cRBw1HmZobIP4URmoxio-65" value="_id" style="rounded=0;whiteSpace=wrap;html=1;" parent="cRBw1HmZobIP4URmoxio-57" vertex="1">
          <mxGeometry y="23" width="100" height="27" as="geometry" />
        </mxCell>
        <mxCell id="cRBw1HmZobIP4URmoxio-66" value="array of objects&lt;div&gt;[{product_id, quantity}]&lt;/div&gt;" style="rounded=0;whiteSpace=wrap;html=1;" parent="cRBw1HmZobIP4URmoxio-57" vertex="1">
          <mxGeometry x="100" y="160" width="200" height="40" as="geometry" />
        </mxCell>
        <mxCell id="cRBw1HmZobIP4URmoxio-67" value="items" style="rounded=0;whiteSpace=wrap;html=1;" parent="cRBw1HmZobIP4URmoxio-57" vertex="1">
          <mxGeometry y="160" width="100" height="40" as="geometry" />
        </mxCell>
        <mxCell id="cRBw1HmZobIP4URmoxio-68" value="enum&lt;div&gt;{cod, online_payment}&lt;/div&gt;" style="rounded=0;whiteSpace=wrap;html=1;" parent="cRBw1HmZobIP4URmoxio-57" vertex="1">
          <mxGeometry x="100" y="200" width="200" height="40" as="geometry" />
        </mxCell>
        <mxCell id="cRBw1HmZobIP4URmoxio-69" value="payment_mode" style="rounded=0;whiteSpace=wrap;html=1;" parent="cRBw1HmZobIP4URmoxio-57" vertex="1">
          <mxGeometry y="200" width="100" height="40" as="geometry" />
        </mxCell>
        <mxCell id="cRBw1HmZobIP4URmoxio-70" value="object" style="rounded=0;whiteSpace=wrap;html=1;" parent="cRBw1HmZobIP4URmoxio-57" vertex="1">
          <mxGeometry x="100" y="240" width="200" height="40" as="geometry" />
        </mxCell>
        <mxCell id="cRBw1HmZobIP4URmoxio-71" value="payment_details" style="rounded=0;whiteSpace=wrap;html=1;" parent="cRBw1HmZobIP4URmoxio-57" vertex="1">
          <mxGeometry y="240" width="100" height="40" as="geometry" />
        </mxCell>
        <mxCell id="cRBw1HmZobIP4URmoxio-72" value="boolean" style="rounded=0;whiteSpace=wrap;html=1;" parent="cRBw1HmZobIP4URmoxio-57" vertex="1">
          <mxGeometry x="100" y="280" width="200" height="40" as="geometry" />
        </mxCell>
        <mxCell id="cRBw1HmZobIP4URmoxio-73" value="isSubscription" style="rounded=0;whiteSpace=wrap;html=1;" parent="cRBw1HmZobIP4URmoxio-57" vertex="1">
          <mxGeometry y="280" width="100" height="40" as="geometry" />
        </mxCell>
        <mxCell id="cRBw1HmZobIP4URmoxio-74" value="product" style="swimlane;whiteSpace=wrap;html=1;fillColor=default;" parent="1" vertex="1">
          <mxGeometry x="2750" y="560" width="320" height="380" as="geometry">
            <mxRectangle x="160" y="160" width="140" height="30" as="alternateBounds" />
          </mxGeometry>
        </mxCell>
        <mxCell id="cRBw1HmZobIP4URmoxio-75" value="string" style="rounded=0;whiteSpace=wrap;html=1;" parent="cRBw1HmZobIP4URmoxio-74" vertex="1">
          <mxGeometry x="160" y="23" width="160" height="27" as="geometry" />
        </mxCell>
        <mxCell id="cRBw1HmZobIP4URmoxio-76" value="string" style="rounded=0;whiteSpace=wrap;html=1;" parent="cRBw1HmZobIP4URmoxio-74" vertex="1">
          <mxGeometry x="160" y="50" width="160" height="27" as="geometry" />
        </mxCell>
        <mxCell id="cRBw1HmZobIP4URmoxio-77" value="name" style="rounded=0;whiteSpace=wrap;html=1;" parent="cRBw1HmZobIP4URmoxio-74" vertex="1">
          <mxGeometry y="50" width="160" height="27" as="geometry" />
        </mxCell>
        <mxCell id="cRBw1HmZobIP4URmoxio-78" value="string" style="rounded=0;whiteSpace=wrap;html=1;" parent="cRBw1HmZobIP4URmoxio-74" vertex="1">
          <mxGeometry x="160" y="77" width="160" height="27" as="geometry" />
        </mxCell>
        <mxCell id="cRBw1HmZobIP4URmoxio-79" value="description" style="rounded=0;whiteSpace=wrap;html=1;" parent="cRBw1HmZobIP4URmoxio-74" vertex="1">
          <mxGeometry y="77" width="160" height="27" as="geometry" />
        </mxCell>
        <mxCell id="cRBw1HmZobIP4URmoxio-80" value="_id" style="rounded=0;whiteSpace=wrap;html=1;" parent="cRBw1HmZobIP4URmoxio-74" vertex="1">
          <mxGeometry y="23" width="160" height="27" as="geometry" />
        </mxCell>
        <mxCell id="cRBw1HmZobIP4URmoxio-81" value="string" style="rounded=0;whiteSpace=wrap;html=1;" parent="cRBw1HmZobIP4URmoxio-74" vertex="1">
          <mxGeometry x="160" y="104" width="160" height="27" as="geometry" />
        </mxCell>
        <mxCell id="cRBw1HmZobIP4URmoxio-82" value="category_id" style="rounded=0;whiteSpace=wrap;html=1;" parent="cRBw1HmZobIP4URmoxio-74" vertex="1">
          <mxGeometry y="104" width="160" height="27" as="geometry" />
        </mxCell>
        <mxCell id="cRBw1HmZobIP4URmoxio-83" value="boolean" style="rounded=0;whiteSpace=wrap;html=1;" parent="cRBw1HmZobIP4URmoxio-74" vertex="1">
          <mxGeometry x="160" y="131" width="160" height="27" as="geometry" />
        </mxCell>
        <mxCell id="cRBw1HmZobIP4URmoxio-84" value="isAvailable" style="rounded=0;whiteSpace=wrap;html=1;" parent="cRBw1HmZobIP4URmoxio-74" vertex="1">
          <mxGeometry y="131" width="160" height="27" as="geometry" />
        </mxCell>
        <mxCell id="cRBw1HmZobIP4URmoxio-87" value="thumnail_img" style="rounded=0;whiteSpace=wrap;html=1;" parent="cRBw1HmZobIP4URmoxio-74" vertex="1">
          <mxGeometry x="160" y="185" width="160" height="40" as="geometry" />
        </mxCell>
        <mxCell id="cRBw1HmZobIP4URmoxio-88" value="thumbnail" style="rounded=0;whiteSpace=wrap;html=1;" parent="cRBw1HmZobIP4URmoxio-74" vertex="1">
          <mxGeometry y="185" width="160" height="40" as="geometry" />
        </mxCell>
        <mxCell id="cRBw1HmZobIP4URmoxio-162" value="price" style="rounded=0;whiteSpace=wrap;html=1;" parent="cRBw1HmZobIP4URmoxio-74" vertex="1">
          <mxGeometry y="225" width="160" height="52" as="geometry" />
        </mxCell>
        <mxCell id="cRBw1HmZobIP4URmoxio-163" value="string&lt;div&gt;&lt;/div&gt;&lt;div&gt;(consider the lowest value from the variants)&lt;/div&gt;" style="rounded=0;whiteSpace=wrap;html=1;" parent="cRBw1HmZobIP4URmoxio-74" vertex="1">
          <mxGeometry x="160" y="225" width="160" height="52" as="geometry" />
        </mxCell>
        <mxCell id="cRBw1HmZobIP4URmoxio-164" value="created_at" style="rounded=0;whiteSpace=wrap;html=1;" parent="cRBw1HmZobIP4URmoxio-74" vertex="1">
          <mxGeometry y="277" width="160" height="28" as="geometry" />
        </mxCell>
        <mxCell id="cRBw1HmZobIP4URmoxio-165" value="timestamps&lt;div&gt;&lt;/div&gt;" style="rounded=0;whiteSpace=wrap;html=1;" parent="cRBw1HmZobIP4URmoxio-74" vertex="1">
          <mxGeometry x="160" y="277" width="160" height="28" as="geometry" />
        </mxCell>
        <mxCell id="cRBw1HmZobIP4URmoxio-171" value="updated_at" style="rounded=0;whiteSpace=wrap;html=1;" parent="cRBw1HmZobIP4URmoxio-74" vertex="1">
          <mxGeometry y="305" width="160" height="28" as="geometry" />
        </mxCell>
        <mxCell id="cRBw1HmZobIP4URmoxio-172" value="timestamps&lt;div&gt;&lt;/div&gt;" style="rounded=0;whiteSpace=wrap;html=1;" parent="cRBw1HmZobIP4URmoxio-74" vertex="1">
          <mxGeometry x="160" y="305" width="160" height="28" as="geometry" />
        </mxCell>
        <mxCell id="cRBw1HmZobIP4URmoxio-173" value="deleted_at" style="rounded=0;whiteSpace=wrap;html=1;" parent="cRBw1HmZobIP4URmoxio-74" vertex="1">
          <mxGeometry y="333" width="160" height="28" as="geometry" />
        </mxCell>
        <mxCell id="cRBw1HmZobIP4URmoxio-174" value="timestamps&lt;div&gt;&lt;/div&gt;" style="rounded=0;whiteSpace=wrap;html=1;" parent="cRBw1HmZobIP4URmoxio-74" vertex="1">
          <mxGeometry x="160" y="333" width="160" height="28" as="geometry" />
        </mxCell>
        <mxCell id="cRBw1HmZobIP4URmoxio-185" value="boolean" style="rounded=0;whiteSpace=wrap;html=1;" parent="cRBw1HmZobIP4URmoxio-74" vertex="1">
          <mxGeometry x="160" y="158" width="160" height="27" as="geometry" />
        </mxCell>
        <mxCell id="cRBw1HmZobIP4URmoxio-186" value="isAvailableForSubscription" style="rounded=0;whiteSpace=wrap;html=1;" parent="cRBw1HmZobIP4URmoxio-74" vertex="1">
          <mxGeometry y="158" width="160" height="27" as="geometry" />
        </mxCell>
        <mxCell id="cRBw1HmZobIP4URmoxio-92" value="category" style="swimlane;whiteSpace=wrap;html=1;fillColor=default;" parent="1" vertex="1">
          <mxGeometry x="2400" y="530" width="200" height="90" as="geometry">
            <mxRectangle x="160" y="160" width="140" height="30" as="alternateBounds" />
          </mxGeometry>
        </mxCell>
        <mxCell id="cRBw1HmZobIP4URmoxio-93" value="string" style="rounded=0;whiteSpace=wrap;html=1;" parent="cRBw1HmZobIP4URmoxio-92" vertex="1">
          <mxGeometry x="100" y="23" width="100" height="27" as="geometry" />
        </mxCell>
        <mxCell id="cRBw1HmZobIP4URmoxio-94" value="string" style="rounded=0;whiteSpace=wrap;html=1;" parent="cRBw1HmZobIP4URmoxio-92" vertex="1">
          <mxGeometry x="100" y="50" width="100" height="27" as="geometry" />
        </mxCell>
        <mxCell id="cRBw1HmZobIP4URmoxio-95" value="name" style="rounded=0;whiteSpace=wrap;html=1;" parent="cRBw1HmZobIP4URmoxio-92" vertex="1">
          <mxGeometry y="50" width="100" height="27" as="geometry" />
        </mxCell>
        <mxCell id="cRBw1HmZobIP4URmoxio-96" value="_id" style="rounded=0;whiteSpace=wrap;html=1;" parent="cRBw1HmZobIP4URmoxio-92" vertex="1">
          <mxGeometry y="23" width="100" height="27" as="geometry" />
        </mxCell>
        <mxCell id="cRBw1HmZobIP4URmoxio-97" value="subscription" style="swimlane;whiteSpace=wrap;html=1;fillColor=default;" parent="1" vertex="1">
          <mxGeometry x="1890" y="630" width="230" height="195" as="geometry">
            <mxRectangle x="160" y="160" width="140" height="30" as="alternateBounds" />
          </mxGeometry>
        </mxCell>
        <mxCell id="cRBw1HmZobIP4URmoxio-98" value="string" style="rounded=0;whiteSpace=wrap;html=1;" parent="cRBw1HmZobIP4URmoxio-97" vertex="1">
          <mxGeometry x="100" y="23" width="130" height="27" as="geometry" />
        </mxCell>
        <mxCell id="cRBw1HmZobIP4URmoxio-99" value="string" style="rounded=0;whiteSpace=wrap;html=1;" parent="cRBw1HmZobIP4URmoxio-97" vertex="1">
          <mxGeometry x="100" y="50" width="130" height="27" as="geometry" />
        </mxCell>
        <mxCell id="cRBw1HmZobIP4URmoxio-100" value="user_id" style="rounded=0;whiteSpace=wrap;html=1;" parent="cRBw1HmZobIP4URmoxio-97" vertex="1">
          <mxGeometry y="50" width="100" height="27" as="geometry" />
        </mxCell>
        <mxCell id="cRBw1HmZobIP4URmoxio-101" value="_id" style="rounded=0;whiteSpace=wrap;html=1;" parent="cRBw1HmZobIP4URmoxio-97" vertex="1">
          <mxGeometry y="23" width="100" height="27" as="geometry" />
        </mxCell>
        <mxCell id="cRBw1HmZobIP4URmoxio-102" value="enum&lt;div&gt;{1 week(trial), 1 month}&lt;/div&gt;" style="rounded=0;whiteSpace=wrap;html=1;" parent="cRBw1HmZobIP4URmoxio-97" vertex="1">
          <mxGeometry x="100" y="77" width="130" height="63" as="geometry" />
        </mxCell>
        <mxCell id="cRBw1HmZobIP4URmoxio-103" value="duration" style="rounded=0;whiteSpace=wrap;html=1;" parent="cRBw1HmZobIP4URmoxio-97" vertex="1">
          <mxGeometry y="77" width="100" height="63" as="geometry" />
        </mxCell>
        <mxCell id="cRBw1HmZobIP4URmoxio-104" value="products" style="rounded=0;whiteSpace=wrap;html=1;" parent="cRBw1HmZobIP4URmoxio-97" vertex="1">
          <mxGeometry y="140" width="100" height="43" as="geometry" />
        </mxCell>
        <mxCell id="cRBw1HmZobIP4URmoxio-105" value="array of string&lt;div&gt;[{product_id}]&lt;/div&gt;" style="rounded=0;whiteSpace=wrap;html=1;" parent="cRBw1HmZobIP4URmoxio-97" vertex="1">
          <mxGeometry x="100" y="140" width="130" height="43" as="geometry" />
        </mxCell>
        <mxCell id="cRBw1HmZobIP4URmoxio-124" value="product info" style="swimlane;whiteSpace=wrap;html=1;fillColor=default;" parent="1" vertex="1">
          <mxGeometry x="2400" y="680" width="280" height="250" as="geometry">
            <mxRectangle x="160" y="160" width="140" height="30" as="alternateBounds" />
          </mxGeometry>
        </mxCell>
        <mxCell id="cRBw1HmZobIP4URmoxio-125" value="string" style="rounded=0;whiteSpace=wrap;html=1;" parent="cRBw1HmZobIP4URmoxio-124" vertex="1">
          <mxGeometry x="100" y="23" width="180" height="27" as="geometry" />
        </mxCell>
        <mxCell id="cRBw1HmZobIP4URmoxio-130" value="_id" style="rounded=0;whiteSpace=wrap;html=1;" parent="cRBw1HmZobIP4URmoxio-124" vertex="1">
          <mxGeometry y="23" width="100" height="27" as="geometry" />
        </mxCell>
        <mxCell id="cRBw1HmZobIP4URmoxio-139" value="array of object&lt;div&gt;[{quntity, unit_price, stock}]&lt;/div&gt;" style="rounded=0;whiteSpace=wrap;html=1;" parent="cRBw1HmZobIP4URmoxio-124" vertex="1">
          <mxGeometry x="100" y="119" width="180" height="40" as="geometry" />
        </mxCell>
        <mxCell id="cRBw1HmZobIP4URmoxio-140" value="variants" style="rounded=0;whiteSpace=wrap;html=1;" parent="cRBw1HmZobIP4URmoxio-124" vertex="1">
          <mxGeometry y="119" width="100" height="40" as="geometry" />
        </mxCell>
        <mxCell id="cRBw1HmZobIP4URmoxio-141" value="string" style="rounded=0;whiteSpace=wrap;html=1;" parent="cRBw1HmZobIP4URmoxio-124" vertex="1">
          <mxGeometry x="100" y="50" width="180" height="27" as="geometry" />
        </mxCell>
        <mxCell id="cRBw1HmZobIP4URmoxio-142" value="product_id" style="rounded=0;whiteSpace=wrap;html=1;" parent="cRBw1HmZobIP4URmoxio-124" vertex="1">
          <mxGeometry y="50" width="100" height="27" as="geometry" />
        </mxCell>
        <mxCell id="cRBw1HmZobIP4URmoxio-146" value="array of string" style="rounded=0;whiteSpace=wrap;html=1;" parent="cRBw1HmZobIP4URmoxio-124" vertex="1">
          <mxGeometry x="100" y="159" width="180" height="33" as="geometry" />
        </mxCell>
        <mxCell id="cRBw1HmZobIP4URmoxio-147" value="main_imgs" style="rounded=0;whiteSpace=wrap;html=1;" parent="cRBw1HmZobIP4URmoxio-124" vertex="1">
          <mxGeometry y="159" width="100" height="33" as="geometry" />
        </mxCell>
        <mxCell id="cRBw1HmZobIP4URmoxio-85" value="enum&lt;div&gt;[ml, L, kg, g, none, dozen]&lt;/div&gt;" style="rounded=0;whiteSpace=wrap;html=1;" parent="cRBw1HmZobIP4URmoxio-124" vertex="1">
          <mxGeometry x="100" y="77" width="180" height="42" as="geometry" />
        </mxCell>
        <mxCell id="cRBw1HmZobIP4URmoxio-86" value="unit" style="rounded=0;whiteSpace=wrap;html=1;" parent="cRBw1HmZobIP4URmoxio-124" vertex="1">
          <mxGeometry y="77" width="100" height="42" as="geometry" />
        </mxCell>
        <mxCell id="cRBw1HmZobIP4URmoxio-169" value="" style="endArrow=none;html=1;rounded=0;exitX=0;exitY=0.5;exitDx=0;exitDy=0;entryX=0;entryY=0.5;entryDx=0;entryDy=0;endFill=0;" parent="1" source="cRBw1HmZobIP4URmoxio-96" target="cRBw1HmZobIP4URmoxio-82" edge="1">
          <mxGeometry width="50" height="50" relative="1" as="geometry">
            <mxPoint x="2560" y="630" as="sourcePoint" />
            <mxPoint x="2380" y="650" as="targetPoint" />
            <Array as="points">
              <mxPoint x="2370" y="567" />
              <mxPoint x="2370" y="640" />
              <mxPoint x="2700" y="640" />
              <mxPoint x="2700" y="677" />
            </Array>
          </mxGeometry>
        </mxCell>
        <mxCell id="cRBw1HmZobIP4URmoxio-170" value="" style="endArrow=none;html=1;rounded=0;exitX=0;exitY=0.5;exitDx=0;exitDy=0;entryX=0;entryY=0.5;entryDx=0;entryDy=0;endFill=0;" parent="1" source="cRBw1HmZobIP4URmoxio-142" target="cRBw1HmZobIP4URmoxio-80" edge="1">
          <mxGeometry width="50" height="50" relative="1" as="geometry">
            <mxPoint x="2620" y="750" as="sourcePoint" />
            <mxPoint x="2670" y="700" as="targetPoint" />
            <Array as="points">
              <mxPoint x="2360" y="744" />
              <mxPoint x="2360" y="660" />
              <mxPoint x="2650" y="660" />
              <mxPoint x="2650" y="597" />
            </Array>
          </mxGeometry>
        </mxCell>
      </root>
    </mxGraphModel>
  </diagram>
</mxfile>
